Coordinates
version=1
nRows=17
nColumns=38
inDegrees=no

Units are S.I. units (second, meters, Newtons, ...)
If the header above contains a line with 'inDegrees', this indicates whether rotational values are in degrees (yes) or radians (no).

endheader
time	pelvis_tilt	pelvis_list	pelvis_rotation	pelvis_tx	pelvis_ty	pelvis_tz	hip_flexion_r	hip_adduction_r	hip_rotation_r	knee_angle_r	ankle_angle_r	subtalar_angle_r	mtp_angle_r	hip_flexion_l	hip_adduction_l	hip_rotation_l	knee_angle_l	ankle_angle_l	subtalar_angle_l	mtp_angle_l	lumbar_extension	lumbar_bending	lumbar_rotation	arm_flex_r	arm_add_r	arm_rot_r	elbow_flex_r	pro_sup_r	wrist_flex_r	wrist_dev_r	arm_flex_l	arm_add_l	arm_rot_l	elbow_flex_l	pro_sup_l	wrist_flex_l	wrist_dev_l
1.56	0.290104	1.3384	-1.74616	0.6153	0.129855	1.09094	-0.28641	-0.0258981	-0.0836958	0.220656	-0.338806	0	0	0.125665	-0.151195	-0.245281	0.918405	-0.221579	0	0	-0.61109	-0.0359979	0.209369	0.110631	-0.641944	0.732155	0.947204	0.774039	0	0	0.188755	-0.361866	0.597321	0.728629	0.893401	0	0
1.57	0.298929	1.34103	-1.75678	0.616711	0.12167	1.09029	-0.292843	-0.0286476	-0.0828984	0.220068	-0.334324	0	0	0.132312	-0.14375	-0.247598	0.873156	-0.22041	0	0	-0.610472	-0.0389663	0.209319	0.114753	-0.641389	0.733804	0.945265	0.774102	0	0	0.190963	-0.360834	0.59774	0.726763	0.891872	0	0
1.58	0.305681	1.34336	-1.76539	0.618246	0.113498	1.08953	-0.299179	-0.0312043	-0.0814381	0.220631	-0.329156	0	0	0.137082	-0.136251	-0.25136	0.827871	-0.215269	0	0	-0.610252	-0.0413784	0.209291	0.119174	-0.641545	0.736279	0.943884	0.774135	0	0	0.192707	-0.359763	0.597428	0.725393	0.891238	0	0
1.59	0.311234	1.34563	-1.77279	0.619926	0.105286	1.08866	-0.305277	-0.0337136	-0.0796222	0.221863	-0.32329	0	0	0.140464	-0.128626	-0.25571	0.782623	-0.208046	0	0	-0.61007	-0.0433318	0.209061	0.123691	-0.642156	0.739211	0.943002	0.774127	0	0	0.19381	-0.358644	0.596155	0.724428	0.890765	0	0
1.6	0.315058	1.34806	-1.77807	0.62178	0.0970317	1.08764	-0.310901	-0.0358336	-0.0783345	0.22387	-0.317119	0	0	0.143469	-0.121184	-0.25976	0.737749	-0.20138	0	0	-0.609582	-0.0445118	0.208419	0.127896	-0.642871	0.741771	0.942478	0.773842	0	0	0.194263	-0.357574	0.594266	0.723804	0.89074	0	0
1.61	0.317249	1.35091	-1.78135	0.623841	0.0887398	1.08646	-0.315973	-0.0375041	-0.0767159	0.226326	-0.311018	0	0	0.14615	-0.113895	-0.262026	0.692341	-0.196232	0	0	-0.608623	-0.0449114	0.207515	0.131972	-0.643919	0.744599	0.94226	0.773566	0	0	0.19425	-0.356213	0.591749	0.723047	0.890993	0	0
1.62	0.318034	1.3545	-1.78259	0.626106	0.0804135	1.08506	-0.3199	-0.0388513	-0.0747064	0.230215	-0.304108	0	0	0.148942	-0.106917	-0.261594	0.645765	-0.192972	0	0	-0.606877	-0.0445114	0.206248	0.135752	-0.645159	0.747509	0.942353	0.773618	0	0	0.193777	-0.354704	0.588604	0.722151	0.890857	0	0
1.63	0.316867	1.35901	-1.78113	0.628564	0.0720102	1.08342	-0.322503	-0.0399511	-0.0727583	0.235754	-0.296901	0	0	0.15255	-0.100905	-0.259442	0.599152	-0.189959	0	0	-0.604036	-0.0431632	0.204799	0.138734	-0.646339	0.749906	0.942523	0.773784	0	0	0.1931	-0.35311	0.585872	0.720949	0.890939	0	0
1.64	0.313746	1.36456	-1.77701	0.631204	0.0635177	1.08154	-0.323712	-0.040349	-0.07163	0.242363	-0.289572	0	0	0.157108	-0.0960221	-0.256704	0.553445	-0.185963	0	0	-0.599998	-0.0408778	0.203227	0.140887	-0.647174	0.75163	0.94234	0.77347	0	0	0.192152	-0.351364	0.58343	0.719577	0.891669	0	0
1.65	0.310038	1.37147	-1.77179	0.633997	0.0549552	1.07945	-0.322894	-0.0403015	-0.0709023	0.250243	-0.281331	0	0	0.161939	-0.0913305	-0.252274	0.506816	-0.18006	0	0	-0.594475	-0.0380977	0.201585	0.142752	-0.647484	0.753441	0.941219	0.773148	0	0	0.191005	-0.349257	0.580809	0.717666	0.89312	0	0
1.66	0.307417	1.37976	-1.76738	0.636895	0.0463241	1.07716	-0.319726	-0.0402475	-0.0704603	0.259795	-0.271509	0	0	0.166324	-0.0858251	-0.245212	0.458174	-0.171249	0	0	-0.587347	-0.0354158	0.199835	0.144562	-0.646894	0.755638	0.938694	0.773013	0	0	0.189463	-0.346912	0.577214	0.715291	0.895038	0	0
1.67	0.304196	1.38819	-1.76231	0.639899	0.0375642	1.07476	-0.316084	-0.0402976	-0.0715256	0.269846	-0.262773	0	0	0.17018	-0.0807587	-0.240166	0.412465	-0.15948	0	0	-0.579704	-0.0326693	0.198119	0.145777	-0.645991	0.757601	0.935788	0.773241	0	0	0.187405	-0.344766	0.573656	0.713263	0.897475	0	0
1.68	0.301271	1.39664	-1.75757	0.643022	0.028661	1.07229	-0.312068	-0.0408059	-0.0736632	0.28076	-0.254367	0	0	0.173508	-0.0757183	-0.235946	0.369699	-0.145719	0	0	-0.571494	-0.030031	0.196404	0.146364	-0.644782	0.759398	0.932421	0.774193	0	0	0.18494	-0.342653	0.570271	0.711083	0.900569	0	0
1.69	0.296553	1.40453	-1.75121	0.646227	0.0196213	1.06977	-0.308661	-0.0414398	-0.0766249	0.291732	-0.247119	0	0	0.176919	-0.0719322	-0.234066	0.333227	-0.131944	0	0	-0.563435	-0.027407	0.194885	0.146135	-0.643635	0.760652	0.929372	0.775718	0	0	0.181945	-0.341087	0.567148	0.709554	0.903053	0	0
1.7	0.304338	1.41165	-1.75758	0.649659	0.0104689	1.06748	-0.30543	-0.0453486	-0.081216	0.303854	-0.239052	0	0	0.176903	-0.0644586	-0.227055	0.292629	-0.121046	0	0	-0.555722	-0.027037	0.192389	0.146081	-0.641486	0.761861	0.924841	0.77808	0	0	0.178691	-0.339062	0.562517	0.706957	0.904799	0	0
1.71	0.309978	1.4178	-1.76206	0.652976	0.00116007	1.06525	-0.303586	-0.0488518	-0.085501	0.31561	-0.232185	0	0	0.175028	-0.0582001	-0.217555	0.254962	-0.115417	0	0	-0.54863	-0.0268969	0.190286	0.145179	-0.63917	0.762179	0.920996	0.780662	0	0	0.175015	-0.338043	0.558249	0.705738	0.906526	0	0
1.72	0.31572	1.42336	-1.76726	0.656127	-0.00835039	1.0631	-0.302411	-0.0523225	-0.0888135	0.327511	-0.225393	0	0	0.170695	-0.0525706	-0.204638	0.218101	-0.116283	0	0	-0.541536	-0.027541	0.188709	0.143596	-0.6361	0.761743	0.916981	0.784596	0	0	0.170911	-0.337897	0.554107	0.705466	0.909073	0	0
